<svg xmlns="http://www.w3.org/2000/svg" version="1.1" xmlns:xlink="http://www.w3.org/1999/xlink" xmlns:svgjs="http://svgjs.dev/svgjs" width="2000" height="2250" viewBox="0 0 2000 2250"><g transform="matrix(1,0,0,1,3.410605131648481e-13,0)"><svg viewBox="0 0 320 360" data-background-color="#ffffff" preserveAspectRatio="xMidYMid meet" height="2250" width="2000" xmlns="http://www.w3.org/2000/svg" xmlns:xlink="http://www.w3.org/1999/xlink"><g id="tight-bounds" transform="matrix(1,0,0,1,0,0)"><svg viewBox="0 0 320 360" height="360" width="320"><g><svg></svg></g><g><svg viewBox="0 0 320 360" height="360" width="320"><g><path xmlns="http://www.w3.org/2000/svg" d="M20.961 227.22l3.726 4.658-1.863-6.056c-0.466-2.795-3.726 0.466-1.863 1.398M25.153 224.425c1.397 2.329 2.795 4.658 2.795 6.987 0 3.261 2.795 4.658 5.123 5.589-3.261-3.726-5.124-13.974-7.918-12.576M204.017 26.929c7.918 0 15.371-0.932 23.756 0.931 20.495 5.124 37.729 15.371 49.374 29.811l32.606 52.169c1.397 13.042 4.192 27.482 3.726 43.319 3.261 0 2.795-4.658 6.521-5.59-3.726 9.316-5.59 20.961-6.521 34.469-2.329-7.453 0-18.632 0.466-24.687-3.261 5.124-5.124 1.397-5.124-0.932 0.466-3.726-1.397-3.261-2.795-4.658-5.124-4.658-8.384-9.782-12.11-17.7 2.329-6.055 2.795-14.905-4.658-19.563-2.329-1.397-5.124-3.726-6.521-7.453-1.863-5.124-5.124-11.179-4.193-19.097 0.466-2.329-6.987 5.124-11.179 1.863-18.166-12.576-36.332-27.016-58.224-39.127-11.645 0-20.029-4.192-24.221-9.316-3.726-4.658-0.932-10.713 4.658-11.179 3.261 0 6.987-0.932 9.782 0.932 0.466-1.863 2.329-4.192 4.657-4.192M157.904 16.215l0.932 0.466c4.658 0.932 6.987 7.453 12.11 5.124 0 3.261 0.466 6.521-0.466 8.85-1.397 3.726-5.59 3.726-8.85 3.726-31.208-1.863-49.374 11.179-68.471 22.358-5.124 3.261-10.713 5.59-14.906 9.782-20.029 18.632-41.921 35.866-47.045 70.335l-4.192 38.195c-0.466 4.192-5.124 8.384-4.192 13.508l3.26 22.824c-3.261-3.261-5.124 0.932-4.192 2.795 0.466 1.397 2.329 6.055 5.124 1.863 3.726 6.987 7.453 20.495 12.576 26.55 15.837 18.632 36.332 35.4 53.101 52.169 4.192-0.932 7.453-0.932 8.384-3.727 1.397 2.795-1.397 5.59-3.726 6.056 7.453 4.658 15.837 8.85 27.016 9.781 14.44 0.932 27.948 3.261 40.524 6.522 6.521-1.863 13.042-2.795 20.029-3.261 2.329 0 3.726-3.726 6.521-4.658l0.466-4.658c2.795 4.192 2.329-1.397 0.466-4.192 3.261 2.795 4.192 5.124 5.589 6.987 0-1.397 3.726-6.521 3.727-0.466l0.931-6.055c1.397-0.932 1.863 5.124 3.261 0.931 1.397-4.192 4.192-0.932 6.987-2.329-0.932 1.863-0.466 5.59 2.794 3.261l3.727-3.261c2.329 5.59 6.055 3.261 7.918 2.329 20.495-13.042 40.99-28.413 60.553-43.784l-0.466 6.055 2.329-7.453c2.329 2.329 4.192 0.466 5.124-0.931 2.795-4.658 6.521-9.316 12.577-13.508-7.453 20.029-16.303 35.866-27.482 48.908l-4.658 5.59c0 3.261-0.932 7.453-4.658 7.918-1.863 0.466-5.59-0.932-8.384 1.863-1.397 1.863 3.261 5.59-0.466 2.795-3.261-2.329-6.521 0-10.248 0.932-2.795 0.932 1.863 3.726 2.795 5.589 0.932 1.863 1.863 3.726 1.398 6.056l-5.124-5.59c-6.055 3.261-9.782 9.316-14.906 13.974-2.329 1.863-1.397 5.124-1.397 7.918-3.261 0-6.987-0.932-8.85 0.932-1.397 1.863-0.932 4.658-0.932 7.453-4.658-0.466-5.124-7.453-9.315-6.056-4.192 0.932-8.85 1.397-12.577 3.727 2.795 5.59-4.658 2.329-3.726 3.26-6.987-4.192-13.042-7.453-20.495-4.658-15.837-5.124-35.4-2.795-49.84-0.931 0-2.329 0.466-4.658-0.466-5.124-0.932 2.329-3.726 1.397-3.26 1.397-8.85-6.055-17.7-9.782-27.016-14.905-8.384 0.932-16.303-3.261-18.632-5.59-6.521-6.055-13.974-2.795-20.029-4.192-13.042-3.261-17.7-16.769-19.098-26.084-0.932-4.658-4.658-6.521-6.055-6.056-6.055-19.563-15.371-37.263-22.824-55.429-1.863-4.658-1.397-9.316-1.397-14.44 2.329 0.932 4.658 0.466 4.192-2.794-2.329-15.371-7.918-27.016-13.974-38.195 3.261-15.837 3.726-34.469 11.179-48.443 6.521-12.576 18.632-19.098 27.016-29.811 2.795-3.726 2.795-8.85 5.59-12.11 9.316-9.316 18.632-19.098 28.879-27.482 4.658-3.726 10.247 0 17.234-1.397 2.329-8.384 11.645-15.837 20.495-13.508 3.726 0.932 11.179-8.85 13.508-9.782 3.726-1.397 1.863 3.726 1.863 6.987 8.85-6.987 20.961-10.713 32.14-14.906" fill="#4b91f1" fill-rule="nonzero" stroke="none" stroke-width="1" stroke-linecap="butt" stroke-linejoin="miter" stroke-miterlimit="10" stroke-dasharray="" stroke-dashoffset="0" font-family="none" font-weight="none" font-size="none" text-anchor="none" style="mix-blend-mode: normal" data-fill-palette-color="tertiary"></path></g><g transform="matrix(1,0,0,1,117.08757154583232,90)"><svg viewBox="0 0 85.82485690833536 180" height="180" width="85.82485690833536"><g><svg viewBox="0 0 85.82485690833536 180" height="180" width="85.82485690833536"><g><svg viewBox="0 0 175.35369458128076 367.76833847030923" height="180" width="85.82485690833536"><g transform="matrix(1,0,0,1,16.740886699507385,187.7683384703092)"><svg viewBox="0 0 141.871921182266 180" height="180" width="141.871921182266"><g id="textblocktransform"><svg viewBox="0 0 141.871921182266 180" height="180" width="141.871921182266" id="textblock"><g><svg viewBox="0 0 141.871921182266 180" height="180" width="141.871921182266"><g transform="matrix(1,0,0,1,0,0)"><svg width="141.871921182266" viewBox="2.0799999237060547 -34.689998626708984 27.34000015258789 34.689998626708984" height="180" data-palette-color="#4b91f1"><path d="M2.08-31.03L2.08-34.69 29.42-34.69 29.42-31.03 17.82-31.03 17.82 0 13.67 0 13.67-31.03 2.08-31.03Z" opacity="1" transform="matrix(1,0,0,1,0,0)" fill="#4b91f1" class="wordmark-text-0" data-fill-palette-color="primary" id="text-0"></path></svg></g></svg></g></svg></g></svg></g><g><svg viewBox="0 0 175.35369458128076 161.5020184703092" height="161.5020184703092" width="175.35369458128076"><g><svg xmlns="http://www.w3.org/2000/svg" xmlns:xlink="http://www.w3.org/1999/xlink" version="1.1" x="0" y="0" viewBox="5.085000038146973 8.631999969482422 89.83100128173828 82.73500061035156" enable-background="new 0 0 100 100" xml:space="preserve" height="161.5020184703092" width="175.35369458128076" class="icon-icon-0" data-fill-palette-color="accent" id="icon-0"><path d="M93.415 43.382H90.26v-10.58c0-9.542-7.763-17.304-17.304-17.304H61.434C60.692 10.944 56.862 8.632 50 8.632s-10.692 2.312-11.434 6.866H27.044c-9.541 0-17.304 7.762-17.304 17.304v10.58H6.585c-0.828 0-1.5 0.671-1.5 1.5v17.639c0 0.829 0.672 1.5 1.5 1.5H9.74v10.043c0 14.843 8.157 17.204 13.021 17.29 0.543 0.023 1.054-0.197 1.437-0.573s0.599-0.89 0.599-1.427v-8.927h5.316v8.94c0 1.104 0.896 2 2 2h7.701c1.104 0 2-0.896 2-2v-8.94h2.336v8.94c0 1.104 0.896 2 2 2h7.701c1.104 0 2-0.896 2-2v-8.94h2.336v8.94c0 1.104 0.896 2 2 2h7.701c1.104 0 2-0.896 2-2v-8.94h5.316v8.927c0 0.537 0.216 1.051 0.599 1.427s0.887 0.6 1.437 0.573c4.863-0.086 13.021-2.447 13.021-17.29V64.021h3.155c0.828 0 1.5-0.671 1.5-1.5V44.882C94.915 44.053 94.243 43.382 93.415 43.382zM36.644 64.458l-0.565-2.67h27.844l-0.565 2.67H36.644zM64.167 66.458c0.473 0 0.881-0.331 0.979-0.793l0.988-4.67c0.063-0.295-0.012-0.603-0.201-0.837-0.19-0.234-0.476-0.37-0.777-0.37H34.845c-0.302 0-0.587 0.136-0.777 0.37-0.189 0.234-0.264 0.542-0.201 0.837l0.988 4.67c0.098 0.462 0.506 0.793 0.979 0.793h13.151v4.891H13.74v-3.768l5.472-1.519c0.433-0.12 0.732-0.514 0.732-0.963v-23.82c0-0.449-0.3-0.843-0.732-0.963l-5.472-1.519v-5.33c0.324 0.185 9.103 5.227 14.353 6.345-0.116 0.579-0.179 1.176-0.179 1.789 0 5.004 4.07 9.075 9.074 9.075s9.074-4.071 9.074-9.075c0-1.412-0.333-2.744-0.911-3.937l9.697 0.001c-0.577 1.193-0.911 2.525-0.911 3.936 0 5.004 4.07 9.075 9.074 9.075s9.074-4.071 9.074-9.075c0-0.614-0.063-1.213-0.179-1.793 5.339-1.152 14.104-6.182 14.353-6.326v5.315l-5.472 1.519c-0.433 0.12-0.732 0.514-0.732 0.963V65.1c0 0.449 0.3 0.843 0.732 0.963l5.472 1.519v3.768H50.984v-4.891H64.167zM13.74 40.872l4.204 1.167v22.3l-4.204 1.167V40.872zM44.062 41.601c0 3.901-3.174 7.075-7.074 7.075s-7.074-3.174-7.074-7.075 3.174-7.074 7.074-7.074S44.062 37.7 44.062 41.601zM70.086 41.601c0 3.901-3.174 7.075-7.074 7.075s-7.074-3.174-7.074-7.075 3.174-7.074 7.074-7.074S70.086 37.7 70.086 41.601zM86.26 65.507l-4.204-1.167v-22.3l4.204-1.167V65.507zM50 12.632c4.994 0 6.759 1.241 7.329 2.866H42.671C43.241 13.872 45.006 12.632 50 12.632zM27.044 19.498h45.912c6.805 0 12.425 5.139 13.203 11.738-0.541 0.307-9.745 5.595-14.871 6.662-1.42-3.161-4.592-5.372-8.276-5.372-2.734 0-5.182 1.22-6.847 3.138l-12.33-0.001c-1.665-1.917-4.113-3.137-6.846-3.137-3.686 0-6.86 2.213-8.279 5.377-5.025-1.027-14.254-6.336-14.867-6.681C14.628 24.629 20.243 19.498 27.044 19.498zM8.085 61.021V46.382H9.74v14.639H8.085zM79.204 87.178v-8.75c0-1.104-0.896-2-2-2h-9.316c-1.104 0-2 0.896-2 2v8.94h-3.701v-8.94c0-1.104-0.896-2-2-2h-6.336c-1.104 0-2 0.896-2 2v8.94h-3.701v-8.94c0-1.104-0.896-2-2-2h-6.336c-1.104 0-2 0.896-2 2v8.94h-3.701v-8.94c0-1.104-0.896-2-2-2h-9.316c-1.104 0-2 0.896-2 2v8.75c-2.898-0.549-7.056-2.879-7.056-13.113V73.35h72.52v0.715C86.26 84.298 82.103 86.629 79.204 87.178zM91.915 61.021H90.26V46.382h1.655V61.021zM36.988 36.783c-2.507 0-4.547 2.04-4.547 4.546s2.04 4.546 4.547 4.546 4.547-2.04 4.547-4.546S39.495 36.783 36.988 36.783zM63.1 36.783c-2.507 0-4.547 2.04-4.547 4.546s2.04 4.546 4.547 4.546 4.547-2.04 4.547-4.546S65.606 36.783 63.1 36.783z" fill="#4b91f1" data-fill-palette-color="accent"></path></svg></g></svg></g><g></g></svg></g></svg></g></svg></g></svg></g><defs></defs></svg><rect width="320" height="360" fill="none" stroke="none" visibility="hidden"></rect></g></svg></g></svg>